<svg width="22" height="22" viewBox="0 0 22 22" fill="none" xmlns="http://www.w3.org/2000/svg">
<path d="M21.3493 8.99778H10.9928V13.2545H16.9092C16.6541 14.6304 15.8801 15.7941 14.7135 16.5738C13.7274 17.2331 12.4691 17.6229 10.99 17.6229C8.12638 17.6229 5.70424 15.6881 4.83857 13.0882C4.62072 12.4289 4.49459 11.7238 4.49459 10.9986C4.49459 10.2734 4.62072 9.56821 4.83857 8.90892C5.7071 6.31192 8.12925 4.37707 10.9928 4.37707C12.6066 4.37707 14.0542 4.93316 15.195 6.02241L18.3481 2.86645C16.442 1.08925 13.9567 0 10.9928 0C6.69603 0 2.97824 2.46515 1.16951 6.05967C0.424235 7.54449 0 9.22423 0 11.0014C0 12.7786 0.424235 14.4555 1.16951 15.9403C2.97824 19.5349 6.69603 22 10.9928 22C13.9625 22 16.4506 21.0139 18.2679 19.3342C20.3461 17.4194 21.5471 14.5988 21.5471 11.2479C21.5471 10.4683 21.4783 9.72013 21.3493 8.99778Z" fill="#F7F7F7"/>
</svg>
